<?xml version="1.0" encoding="UTF-8" standalone="no"?><!DOCTYPE svg PUBLIC "-//W3C//DTD SVG 1.1//EN" "http://www.w3.org/Graphics/SVG/1.1/DTD/svg11.dtd"><svg width="100%" height="100%" viewBox="0 0 144 144" version="1.1" xmlns="http://www.w3.org/2000/svg" xmlns:xlink="http://www.w3.org/1999/xlink" xml:space="preserve" xmlns:serif="http://www.serif.com/" style="fill-rule:evenodd;clip-rule:evenodd;"><g><clipPath id="_clip1"><rect x="1.344" y="-0.911" width="143.849" height="143.849"/></clipPath><g clip-path="url(#_clip1)"><g><g><g><rect x="1.344" y="-0.911" width="143.849" height="143.849" style="fill:#faf7f2;fill-rule:nonzero;"/></g></g></g></g></g><g><g><g><g><g><path d="M57.617,96.322c-5.141,2.417 -9.812,3.625 -14.021,3.625c-4.031,0 -7.021,-1.094 -8.979,-3.271c-1.948,-2.177 -2.917,-5.625 -2.917,-10.333l0,-38.5l-9.188,0l0,-5.396l9.417,0l0,-17.646l10.458,0l0,17.646l13.792,0l0,5.396l-13.688,0l0,31.646c0,4.141 0.234,7.057 0.708,8.75c0.484,1.682 1.281,2.906 2.396,3.667c1.109,0.766 2.719,1.146 4.833,1.146c1.302,0 2.698,-0.109 4.188,-0.333c1.5,-0.234 2.5,-0.448 3,-0.646l0,4.25Z" style="fill:#013b46;fill-rule:nonzero;"/></g></g></g></g></g><path d="M1.344,45.339l55.026,0" style="fill:none;fill-rule:nonzero;stroke:#013b46;stroke-width:5.99px;"/><g><g><g><g><g><path d="M103.127,103.565l0,-3.792c2.417,-0.193 4.026,-0.479 4.833,-0.854c0.802,-0.385 1.396,-1.021 1.771,-1.896c0.385,-0.885 0.583,-1.922 0.583,-3.104l0,-29.312c0,-4.01 -0.729,-7.089 -2.188,-9.229c-1.458,-2.151 -3.281,-3.229 -5.458,-3.229c-4.865,0 -8.708,2.812 -11.542,8.438l0,32.75c0,1.875 0.458,3.323 1.375,4.333c0.917,1.016 2.812,1.719 5.688,2.104l0,3.792l-24.708,0l0,-3.792c2.302,-0.193 3.839,-0.49 4.604,-0.896c0.76,-0.401 1.323,-1.031 1.688,-1.896c0.359,-0.859 0.542,-1.88 0.542,-3.062l0,-29.312c0,-3.859 -0.708,-6.901 -2.125,-9.125c-1.417,-2.219 -3.25,-3.333 -5.5,-3.333c-2.375,0 -4.615,0.766 -6.708,2.292c-2.083,1.531 -3.703,3.635 -4.854,6.312l0,32.479c0,1.99 0.531,3.49 1.604,4.5c1.083,1.016 2.979,1.698 5.688,2.042l0,3.792l-25.042,0l0,-3.792c1.26,0 2.505,-0.172 3.729,-0.521c1.234,-0.344 2.094,-0.984 2.583,-1.917c0.5,-0.943 0.75,-2.083 0.75,-3.417l0,-35.167c0,-1.802 -0.635,-3.448 -1.896,-4.938c-1.266,-1.5 -3.312,-2.359 -6.146,-2.583l0,-3.792l17.937,-1.167l0.792,0.812l0,7.979l0.229,0l3,-3.438c3.667,-4.208 8.125,-6.312 13.375,-6.312c2.958,0 5.589,0.911 7.896,2.729c2.318,1.823 4.031,4.281 5.146,7.375l3.167,-3.5c3.984,-4.401 8.583,-6.604 13.792,-6.604c4.359,0 7.677,1.677 9.958,5.021c2.276,3.349 3.417,8.073 3.417,14.167l0,28.833c0,1.875 0.469,3.323 1.417,4.333c0.943,1.016 2.943,1.719 6,2.104l0,3.792l-25.396,0Z" style="fill:#b8860b;fill-rule:nonzero;"/></g></g></g></g></g><path d="M102.833,102.068l42.359,-0" style="fill:none;fill-rule:nonzero;stroke:#b8860b;stroke-width:4px;"/></svg>