<?xml version="1.0" encoding="UTF-8" standalone="no"?>
<!DOCTYPE svg PUBLIC "-//W3C//DTD SVG 1.1//EN" "http://www.w3.org/Graphics/SVG/1.1/DTD/svg11.dtd">
<svg width="100%" height="100%" viewBox="0 0 1920 371" version="1.1" xmlns="http://www.w3.org/2000/svg" xmlns:xlink="http://www.w3.org/1999/xlink" xml:space="preserve" xmlns:serif="http://www.serif.com/" style="fill-rule:evenodd;clip-rule:evenodd;">
    <g transform="matrix(1.333333,0,0,1.333333,0,-337.999995)">
        <g transform="matrix(1,0,0,1,194.088262,422.384324)">
            <g>
                <path d="M62.844,-4.359C53.801,-0.098 45.57,2.031 38.156,2.031C31.07,2.031 25.805,0.109 22.359,-3.734C18.922,-7.586 17.203,-13.664 17.203,-21.969L17.203,-89.766L1.016,-89.766L1.016,-99.281L17.609,-99.281L17.609,-130.344L36.031,-130.344L36.031,-99.281L60.312,-99.281L60.312,-89.766L36.234,-89.766L36.234,-34C36.234,-26.719 36.656,-21.594 37.5,-18.625C38.344,-15.656 39.738,-13.492 41.688,-12.141C43.645,-10.797 46.484,-10.125 50.203,-10.125C52.492,-10.125 54.953,-10.32 57.578,-10.719C60.211,-11.125 61.969,-11.5 62.844,-11.844L62.844,-4.359Z" style="fill:rgb(1,59,70);fill-rule:nonzero;"/>
            </g>
        </g>
    </g>
    <g transform="matrix(1.333333,0,0,1.333333,0,-337.999995)">
        <g transform="matrix(1,0,0,1,238.015147,422.384324)">
            <g>
                <path d="M58.5,0L58.5,-6.672L63.047,-7.188C66.285,-7.383 68.547,-8.312 69.828,-9.969C71.109,-11.625 71.75,-13.969 71.75,-17L71.75,-68.406C71.75,-74.957 70.484,-80.289 67.953,-84.406C65.422,-88.52 62.031,-90.578 57.781,-90.578C53.195,-90.578 49,-89.141 45.188,-86.266C41.375,-83.398 38.625,-79.773 36.938,-75.391L36.938,-18.016C36.938,-14.578 37.879,-11.977 39.766,-10.219C41.66,-8.469 45.141,-7.285 50.203,-6.672L50.203,0L5.359,0L5.359,-6.672L9.516,-7.188C12.68,-7.383 14.891,-8.289 16.141,-9.906C17.391,-11.531 18.016,-13.895 18.016,-17L18.016,-133.281C18.016,-135.57 17.555,-137.863 16.641,-140.156C15.734,-142.457 14.539,-144.18 13.062,-145.328C11.438,-146.41 7.285,-147.219 0.609,-147.75L0.609,-154.438L35.422,-156.656L36.938,-155.25L36.938,-85.625L37.344,-85.625L42.609,-91.484C49.285,-98.91 57.312,-102.625 66.688,-102.625C74.52,-102.625 80.492,-99.77 84.609,-94.062C88.723,-88.363 90.781,-80.219 90.781,-69.625L90.781,-17.812C90.781,-14.438 91.625,-11.891 93.312,-10.172C95,-8.453 98.305,-7.285 103.234,-6.672L103.234,0L58.5,0Z" style="fill:rgb(1,59,70);fill-rule:nonzero;"/>
            </g>
        </g>
    </g>
    <g transform="matrix(1.333333,0,0,1.333333,0,-337.999995)">
        <g transform="matrix(1,0,0,1,324.851847,422.384324)">
            <g>
                <path d="M77.516,-86.828C77.516,-82.785 76.57,-79.598 74.688,-77.266C72.801,-74.941 70.133,-73.781 66.688,-73.781C63.52,-73.781 60.875,-74.641 58.75,-76.359C56.625,-78.078 55.562,-80.32 55.562,-83.094C55.562,-84.375 55.898,-86.938 56.578,-90.781C53.129,-90.645 49.648,-89.055 46.141,-86.016C42.641,-82.984 40.18,-79.68 38.766,-76.109L38.766,-18.016C38.766,-14.367 39.773,-11.719 41.797,-10.062C43.816,-8.414 48.473,-7.285 55.766,-6.672L55.766,0L7.281,0L7.281,-6.672L11.438,-7.188C14.602,-7.383 16.812,-8.328 18.062,-10.016C19.312,-11.703 19.938,-14.031 19.938,-17L19.938,-78.531C19.938,-80.895 19.395,-83.238 18.312,-85.562C17.238,-87.895 15.859,-89.516 14.172,-90.422C12.484,-91.336 9.816,-91.93 6.172,-92.203L6.172,-98.875L37.344,-100.906L38.766,-99.484L38.766,-85.625L39.172,-85.625C43.211,-91.289 47.492,-95.473 52.016,-98.172C56.535,-100.867 60.688,-102.219 64.469,-102.219C68.312,-102.219 71.445,-100.848 73.875,-98.109C76.301,-95.379 77.516,-91.617 77.516,-86.828Z" style="fill:rgb(1,59,70);fill-rule:nonzero;"/>
            </g>
        </g>
    </g>
    <g transform="matrix(1.333333,0,0,1.333333,0,-337.999995)">
        <g transform="matrix(1,0,0,1,381.631431,422.384324)">
            <g>
                <path d="M96.141,-51C96.141,-40.676 94.285,-31.383 90.578,-23.125C86.867,-14.863 81.57,-8.422 74.688,-3.797C67.801,0.828 59.836,3.141 50.797,3.141C42.836,3.141 35.469,0.879 28.688,-3.641C21.906,-8.16 16.609,-14.438 12.797,-22.469C8.984,-30.5 7.078,-39.504 7.078,-49.484C7.078,-65.273 11.242,-78.078 19.578,-87.891C27.91,-97.711 38.789,-102.625 52.219,-102.625C60.789,-102.625 68.445,-100.41 75.188,-95.984C81.938,-91.566 87.113,-85.426 90.719,-77.562C94.332,-69.707 96.141,-60.852 96.141,-51ZM75.188,-50.797C75.188,-64.766 73.145,-75.609 69.062,-83.328C64.988,-91.055 59.305,-94.922 52.016,-94.922C44.391,-94.922 38.469,-90.988 34.25,-83.125C30.039,-75.27 27.938,-64.629 27.938,-51.203C27.938,-36.766 30.062,-25.379 34.312,-17.047C38.562,-8.711 44.461,-4.547 52.016,-4.547C59.234,-4.547 64.898,-8.695 69.016,-17C73.129,-25.301 75.188,-36.566 75.188,-50.797Z" style="fill:rgb(1,59,70);fill-rule:nonzero;"/>
            </g>
        </g>
    </g>
    <g transform="matrix(1.333333,0,0,1.333333,0,-337.999995)">
        <g transform="matrix(1,0,0,1,463.509223,422.384324)">
            <g>
                <path d="M71.344,0.406L69.625,-1.016L69.625,-13.656L69.016,-13.656C65.441,-9.207 62.352,-5.969 59.75,-3.938C57.156,-1.914 54.289,-0.332 51.156,0.812C48.02,1.957 44.492,2.531 40.578,2.531C32.891,2.531 27.07,-0.332 23.125,-6.062C19.176,-11.801 17.203,-20.203 17.203,-31.266L17.203,-78.938C17.203,-82.719 16.188,-85.738 14.156,-88C12.133,-90.258 8.598,-91.594 3.547,-92L3.547,-98.672L34.812,-100.906L36.234,-99.484L36.234,-30.266C36.234,-23.648 37.445,-18.367 39.875,-14.422C42.301,-10.473 45.504,-8.5 49.484,-8.5C57.711,-8.5 64.426,-13.391 69.625,-23.172L69.625,-79.75C69.625,-82.176 69.133,-84.383 68.156,-86.375C67.176,-88.363 65.941,-89.727 64.453,-90.469C62.973,-91.219 59.805,-91.727 54.953,-92L54.953,-98.672L87.031,-100.906L88.75,-99.484L88.75,-20.344C88.75,-17.238 89.555,-14.625 91.172,-12.5C92.797,-10.375 94.789,-9.176 97.156,-8.906L101.812,-8.5L101.812,-1.828L71.344,0.406Z" style="fill:rgb(1,59,70);fill-rule:nonzero;"/>
            </g>
        </g>
    </g>
    <g transform="matrix(1.333333,0,0,1.333333,0,-337.999995)">
        <g transform="matrix(1,0,0,1,548.929064,422.384324)">
            <g>
                <path d="M93.312,10.328C93.312,20.984 89.094,29.414 80.656,35.625C72.227,41.832 60.488,44.938 45.438,44.938C18.051,44.938 4.359,36.234 4.359,18.828C4.359,12.348 6.867,7.051 11.891,2.938C16.922,-1.176 23.957,-3.473 33,-3.953L33,-5.156C26.582,-7.188 22.039,-9.598 19.375,-12.391C16.719,-15.191 15.391,-18.648 15.391,-22.766C15.391,-30.328 20.414,-36.195 30.469,-40.375L30.469,-42.094C23.988,-45 18.977,-48.828 15.438,-53.578C11.895,-58.336 10.125,-63.891 10.125,-70.234C10.125,-79.68 13.258,-87.441 19.531,-93.516C25.801,-99.586 33.66,-102.625 43.109,-102.625C48.234,-102.625 53.766,-101.508 59.703,-99.281L92.406,-99.281L92.406,-89.766L71.047,-89.766L71.047,-89.156C76.035,-83.352 78.531,-76.641 78.531,-69.016C78.531,-63.348 77.062,-58.117 74.125,-53.328C71.195,-48.547 67.285,-44.754 62.391,-41.953C57.504,-39.148 52.461,-37.75 47.266,-37.75L35.828,-37.75C31.711,-35.727 29.656,-32.828 29.656,-29.047C29.656,-26.754 30.16,-24.969 31.172,-23.688C32.18,-22.406 33.695,-21.457 35.719,-20.844C37.75,-20.238 42.27,-19.703 49.281,-19.234L69.625,-18.016C73.875,-17.609 77.836,-16.125 81.516,-13.562C85.191,-11 88.078,-7.66 90.172,-3.547C92.266,0.566 93.312,5.191 93.312,10.328ZM59.312,-69.422C59.312,-77.254 57.926,-83.531 55.156,-88.25C52.383,-92.969 48.707,-95.328 44.125,-95.328C39.602,-95.328 36.094,-93.066 33.594,-88.547C31.102,-84.023 29.859,-77.852 29.859,-70.031C29.859,-62.812 31.238,-56.789 34,-51.969C36.77,-47.145 40.211,-44.734 44.328,-44.734C48.773,-44.734 52.383,-47.062 55.156,-51.719C57.926,-56.375 59.312,-62.273 59.312,-69.422ZM76.719,14.062C76.719,6.301 73.613,1.75 67.406,0.406C62.344,-0.812 53.066,-1.422 39.578,-1.422C33.16,-0.004 28.617,2.375 25.953,5.719C23.297,9.062 21.969,13.297 21.969,18.422C21.969,24.148 24.344,28.734 29.094,32.172C33.852,35.617 40.379,37.344 48.672,37.344C57.379,37.344 64.227,35.438 69.219,31.625C74.219,27.812 76.719,21.957 76.719,14.062Z" style="fill:rgb(1,59,70);fill-rule:nonzero;"/>
            </g>
        </g>
    </g>
    <g transform="matrix(1.333333,0,0,1.333333,0,-337.999995)">
        <g transform="matrix(1,0,0,1,624.83589,422.384324)">
            <g>
                <path d="M58.5,0L58.5,-6.672L63.047,-7.188C66.285,-7.383 68.547,-8.312 69.828,-9.969C71.109,-11.625 71.75,-13.969 71.75,-17L71.75,-68.406C71.75,-74.957 70.484,-80.289 67.953,-84.406C65.422,-88.52 62.031,-90.578 57.781,-90.578C53.195,-90.578 49,-89.141 45.188,-86.266C41.375,-83.398 38.625,-79.773 36.938,-75.391L36.938,-18.016C36.938,-14.578 37.879,-11.977 39.766,-10.219C41.66,-8.469 45.141,-7.285 50.203,-6.672L50.203,0L5.359,0L5.359,-6.672L9.516,-7.188C12.68,-7.383 14.891,-8.289 16.141,-9.906C17.391,-11.531 18.016,-13.895 18.016,-17L18.016,-133.281C18.016,-135.57 17.555,-137.863 16.641,-140.156C15.734,-142.457 14.539,-144.18 13.062,-145.328C11.438,-146.41 7.285,-147.219 0.609,-147.75L0.609,-154.438L35.422,-156.656L36.938,-155.25L36.938,-85.625L37.344,-85.625L42.609,-91.484C49.285,-98.91 57.312,-102.625 66.688,-102.625C74.52,-102.625 80.492,-99.77 84.609,-94.062C88.723,-88.363 90.781,-80.219 90.781,-69.625L90.781,-17.812C90.781,-14.438 91.625,-11.891 93.312,-10.172C95,-8.453 98.305,-7.285 103.234,-6.672L103.234,0L58.5,0Z" style="fill:rgb(1,59,70);fill-rule:nonzero;"/>
            </g>
        </g>
    </g>
    <g transform="matrix(1.333333,0,0,1.333333,0,-337.999995)">
        <g transform="matrix(1,0,0,1,711.672601,422.384324)">
            <g>
                <path d="M5.359,0L5.359,-6.672L7.688,-6.875C8.562,-6.875 10.078,-7.16 12.234,-7.734C14.398,-8.316 15.938,-9.414 16.844,-11.031C17.758,-12.645 18.219,-14.633 18.219,-17L18.219,-132.672C18.219,-136.859 16.914,-140.301 14.312,-143C11.719,-145.695 7.016,-147.281 0.203,-147.75L0.203,-154.438L35.625,-156.656L37.141,-155.25L37.141,-18.219C37.141,-15.113 37.984,-12.68 39.672,-10.922C41.359,-9.172 44.801,-7.754 50,-6.672L50,0L5.359,0Z" style="fill:rgb(1,59,70);fill-rule:nonzero;"/>
            </g>
        </g>
    </g>
    <g transform="matrix(1.333333,0,0,1.333333,0,-337.999995)">
        <g transform="matrix(1,0,0,1,745.479271,422.384324)">
            <g>
                <path d="M41.094,-140.266C41.094,-136.359 39.773,-133.004 37.141,-130.203C34.504,-127.398 31.367,-126 27.734,-126C24.492,-126 21.594,-127.312 19.031,-129.938C16.469,-132.57 15.188,-135.742 15.188,-139.453C15.188,-143.234 16.43,-146.504 18.922,-149.266C21.422,-152.035 24.359,-153.422 27.734,-153.422C31.504,-153.422 34.672,-152.117 37.234,-149.516C39.805,-146.922 41.094,-143.836 41.094,-140.266ZM7.484,0L7.484,-6.672C12.484,-7.016 15.844,-7.992 17.562,-9.609C19.281,-11.234 20.141,-13.695 20.141,-17L20.141,-78.531C20.141,-81.906 18.82,-84.941 16.188,-87.641C13.562,-90.336 9.617,-91.859 4.359,-92.203L4.359,-98.875L37.547,-100.906L38.969,-99.484L38.969,-18.219C38.969,-14.906 40.098,-12.285 42.359,-10.359C44.617,-8.441 47.703,-7.211 51.609,-6.672L51.609,0L7.484,0Z" style="fill:rgb(1,59,70);fill-rule:nonzero;"/>
            </g>
        </g>
    </g>
    <g transform="matrix(1.333333,0,0,1.333333,0,-337.999995)">
        <g transform="matrix(1,0,0,1,780.702765,422.384324)">
            <g>
                <path d="M60.516,0L60.516,-6.672L65.078,-7.188C68.316,-7.383 70.578,-8.273 71.859,-9.859C73.141,-11.453 73.781,-13.832 73.781,-17L73.781,-68.406C73.781,-75.02 72.477,-80.367 69.875,-84.453C67.281,-88.535 63.891,-90.578 59.703,-90.578C55.18,-90.578 51,-89.141 47.156,-86.266C43.312,-83.398 40.516,-79.773 38.766,-75.391L38.766,-18.016C38.766,-14.641 39.691,-12.07 41.547,-10.312C43.398,-8.562 46.891,-7.348 52.016,-6.672L52.016,0L7.281,0L7.281,-6.672L11.438,-7.188C14.602,-7.383 16.812,-8.328 18.062,-10.016C19.312,-11.703 19.938,-14.031 19.938,-17L19.938,-78.531C19.938,-81.227 19.258,-83.738 17.906,-86.062C16.562,-88.395 15.008,-89.945 13.25,-90.719C11.5,-91.5 9.07,-91.992 5.969,-92.203L5.969,-98.875L37.344,-100.906L38.766,-99.484L38.766,-85.625L39.172,-85.625L44.422,-91.484C51.109,-98.91 59.039,-102.625 68.219,-102.625C76.238,-102.625 82.305,-99.754 86.422,-94.016C90.547,-88.285 92.609,-80.156 92.609,-69.625L92.609,-17.812C92.609,-14.57 93.445,-12.07 95.125,-10.312C96.812,-8.562 100.117,-7.348 105.047,-6.672L105.047,0L60.516,0Z" style="fill:rgb(1,59,70);fill-rule:nonzero;"/>
            </g>
        </g>
    </g>
    <g transform="matrix(1.333333,0,0,1.333333,0,-337.999995)">
        <g transform="matrix(1,0,0,1,869.361101,422.384324)">
            <g>
                <path d="M87.641,-23.375C84.066,-15.477 79.004,-9.148 72.453,-4.391C65.91,0.359 58.629,2.734 50.609,2.734C41.629,2.734 33.867,0.523 27.328,-3.891C20.785,-8.316 15.805,-14.578 12.391,-22.672C8.984,-30.766 7.281,-40.141 7.281,-50.797C7.281,-60.109 9.051,-68.781 12.594,-76.812C16.133,-84.844 21.039,-91.148 27.312,-95.734C33.594,-100.328 40.648,-102.625 48.484,-102.625C60.086,-102.625 69.109,-98.859 75.547,-91.328C81.992,-83.805 85.219,-73.266 85.219,-59.703L85.219,-53.031L27.328,-53.031C27.328,-38.789 29.82,-27.805 34.812,-20.078C39.801,-12.359 46.922,-8.5 56.172,-8.5C61.234,-8.5 65.582,-9.797 69.219,-12.391C72.863,-14.992 76.812,-20.039 81.062,-27.531L87.641,-23.375ZM65.281,-61.531C65.281,-72.594 63.812,-80.922 60.875,-86.516C57.938,-92.117 53.672,-94.922 48.078,-94.922C42.141,-94.922 37.266,-91.883 33.453,-85.812C29.641,-79.75 27.598,-71.656 27.328,-61.531L65.281,-61.531Z" style="fill:rgb(1,59,70);fill-rule:nonzero;"/>
            </g>
        </g>
    </g>
    <g transform="matrix(1,0,-0,1,-4.255452,93.29087)">
        <path d="M0,6.501L343.084,6.501" style="fill:none;fill-rule:nonzero;stroke:rgb(1,59,70);stroke-width:13px;"/>
    </g>
    <g transform="matrix(1,0,-0,1,1252.923785,141.999655)">
        <path d="M6.498,6.5L708.738,6.5" style="fill:none;fill-rule:nonzero;stroke:rgb(1,59,70);stroke-width:13px;stroke-linecap:round;"/>
    </g>
    <g transform="matrix(1.333333,0,0,1.333333,0,-337.999995)">
        <g transform="matrix(1,0,0,1,667.519314,518.146604)">
            <g>
                <path d="M90.203,0L90.203,-5.344C93.598,-5.613 95.863,-6.02 97,-6.562C98.133,-7.102 98.973,-7.992 99.516,-9.234C100.055,-10.473 100.328,-11.93 100.328,-13.609L100.328,-54.891C100.328,-60.566 99.301,-64.914 97.25,-67.938C95.195,-70.957 92.629,-72.469 89.547,-72.469C82.691,-72.469 77.27,-68.5 73.281,-60.562L73.281,-14.406C73.281,-11.758 73.926,-9.723 75.219,-8.297C76.52,-6.867 79.191,-5.883 83.234,-5.344L83.234,0L48.422,0L48.422,-5.344C51.66,-5.613 53.816,-6.031 54.891,-6.594C55.973,-7.164 56.77,-8.055 57.281,-9.266C57.801,-10.484 58.062,-11.93 58.062,-13.609L58.062,-54.891C58.062,-60.348 57.062,-64.641 55.062,-67.766C53.062,-70.898 50.469,-72.469 47.281,-72.469C43.938,-72.469 40.789,-71.383 37.844,-69.219C34.906,-67.062 32.629,-64.098 31.016,-60.328L31.016,-14.578C31.016,-11.766 31.77,-9.645 33.281,-8.219C34.789,-6.789 37.461,-5.832 41.297,-5.344L41.297,0L5.984,0L5.984,-5.344C7.766,-5.344 9.52,-5.582 11.25,-6.062C12.977,-6.551 14.191,-7.457 14.891,-8.781C15.598,-10.102 15.953,-11.711 15.953,-13.609L15.953,-63.156C15.953,-65.695 15.062,-68.02 13.281,-70.125C11.5,-72.227 8.609,-73.441 4.609,-73.766L4.609,-79.109L29.875,-80.734L31.016,-79.594L31.016,-68.344L31.328,-68.344L35.547,-73.203C40.723,-79.141 47.008,-82.109 54.406,-82.109C58.562,-82.109 62.27,-80.82 65.531,-78.25C68.801,-75.688 71.223,-72.223 72.797,-67.859L77.25,-72.797C82.863,-79.004 89.336,-82.109 96.672,-82.109C102.828,-82.109 107.508,-79.742 110.719,-75.016C113.938,-70.297 115.547,-63.645 115.547,-55.062L115.547,-14.406C115.547,-11.758 116.207,-9.723 117.531,-8.297C118.852,-6.867 121.672,-5.883 125.984,-5.344L125.984,0L90.203,0Z" style="fill:rgb(184,134,11);fill-rule:nonzero;"/>
            </g>
        </g>
    </g>
    <g transform="matrix(1.333333,0,0,1.333333,0,-337.999995)">
        <g transform="matrix(1,0,0,1,779.905256,518.146604)">
            <g>
                <path d="M70.125,-18.703C67.258,-12.391 63.207,-7.328 57.969,-3.516C52.738,0.285 46.91,2.188 40.484,2.188C33.305,2.188 27.098,0.422 21.859,-3.109C16.629,-6.648 12.648,-11.66 9.922,-18.141C7.191,-24.617 5.828,-32.117 5.828,-40.641C5.828,-48.098 7.242,-55.035 10.078,-61.453C12.91,-67.879 16.836,-72.926 21.859,-76.594C26.879,-80.27 32.52,-82.109 38.781,-82.109C48.07,-82.109 55.289,-79.098 60.438,-73.078C65.594,-67.055 68.172,-58.617 68.172,-47.766L68.172,-42.422L21.859,-42.422C21.859,-31.035 23.852,-22.25 27.844,-16.062C31.844,-9.883 37.539,-6.797 44.938,-6.797C48.988,-6.797 52.469,-7.832 55.375,-9.906C58.289,-11.988 61.453,-16.031 64.859,-22.031L70.125,-18.703ZM52.219,-49.234C52.219,-58.086 51.047,-64.754 48.703,-69.234C46.359,-73.711 42.945,-75.953 38.469,-75.953C33.707,-75.953 29.801,-73.52 26.75,-68.656C23.707,-63.801 22.078,-57.328 21.859,-49.234L52.219,-49.234Z" style="fill:rgb(184,134,11);fill-rule:nonzero;"/>
            </g>
        </g>
    </g>
    <g transform="matrix(1.333333,0,0,1.333333,0,-337.999995)">
        <g transform="matrix(1,0,0,1,836.262073,518.146604)">
            <g>
                <path d="M90.203,0L90.203,-5.344C93.598,-5.613 95.863,-6.02 97,-6.562C98.133,-7.102 98.973,-7.992 99.516,-9.234C100.055,-10.473 100.328,-11.93 100.328,-13.609L100.328,-54.891C100.328,-60.566 99.301,-64.914 97.25,-67.938C95.195,-70.957 92.629,-72.469 89.547,-72.469C82.691,-72.469 77.27,-68.5 73.281,-60.562L73.281,-14.406C73.281,-11.758 73.926,-9.723 75.219,-8.297C76.52,-6.867 79.191,-5.883 83.234,-5.344L83.234,0L48.422,0L48.422,-5.344C51.66,-5.613 53.816,-6.031 54.891,-6.594C55.973,-7.164 56.77,-8.055 57.281,-9.266C57.801,-10.484 58.062,-11.93 58.062,-13.609L58.062,-54.891C58.062,-60.348 57.062,-64.641 55.062,-67.766C53.062,-70.898 50.469,-72.469 47.281,-72.469C43.938,-72.469 40.789,-71.383 37.844,-69.219C34.906,-67.062 32.629,-64.098 31.016,-60.328L31.016,-14.578C31.016,-11.766 31.77,-9.645 33.281,-8.219C34.789,-6.789 37.461,-5.832 41.297,-5.344L41.297,0L5.984,0L5.984,-5.344C7.766,-5.344 9.52,-5.582 11.25,-6.062C12.977,-6.551 14.191,-7.457 14.891,-8.781C15.598,-10.102 15.953,-11.711 15.953,-13.609L15.953,-63.156C15.953,-65.695 15.062,-68.02 13.281,-70.125C11.5,-72.227 8.609,-73.441 4.609,-73.766L4.609,-79.109L29.875,-80.734L31.016,-79.594L31.016,-68.344L31.328,-68.344L35.547,-73.203C40.723,-79.141 47.008,-82.109 54.406,-82.109C58.562,-82.109 62.27,-80.82 65.531,-78.25C68.801,-75.688 71.223,-72.223 72.797,-67.859L77.25,-72.797C82.863,-79.004 89.336,-82.109 96.672,-82.109C102.828,-82.109 107.508,-79.742 110.719,-75.016C113.938,-70.297 115.547,-63.645 115.547,-55.062L115.547,-14.406C115.547,-11.758 116.207,-9.723 117.531,-8.297C118.852,-6.867 121.672,-5.883 125.984,-5.344L125.984,0L90.203,0Z" style="fill:rgb(184,134,11);fill-rule:nonzero;"/>
            </g>
        </g>
    </g>
    <g transform="matrix(1.333333,0,0,1.333333,0,-337.999995)">
        <g transform="matrix(1,0,0,1,948.648015,518.146604)">
            <g>
                <path d="M76.922,-40.812C76.922,-32.551 75.438,-25.113 72.469,-18.5C69.5,-11.883 65.258,-6.727 59.75,-3.031C54.25,0.664 47.879,2.516 40.641,2.516C34.273,2.516 28.379,0.707 22.953,-2.906C17.523,-6.531 13.285,-11.551 10.234,-17.969C7.191,-24.395 5.672,-31.602 5.672,-39.594C5.672,-52.227 9.004,-62.473 15.672,-70.328C22.336,-78.18 31.039,-82.109 41.781,-82.109C48.633,-82.109 54.758,-80.336 60.156,-76.797C65.562,-73.266 69.707,-68.352 72.594,-62.062C75.477,-55.77 76.922,-48.688 76.922,-40.812ZM60.156,-40.641C60.156,-51.816 58.52,-60.492 55.25,-66.672C51.988,-72.859 47.445,-75.953 41.625,-75.953C35.52,-75.953 30.781,-72.805 27.406,-66.516C24.031,-60.223 22.344,-51.707 22.344,-40.969C22.344,-29.414 24.039,-20.305 27.438,-13.641C30.844,-6.973 35.57,-3.641 41.625,-3.641C47.395,-3.641 51.926,-6.957 55.219,-13.594C58.508,-20.238 60.156,-29.254 60.156,-40.641Z" style="fill:rgb(184,134,11);fill-rule:nonzero;"/>
            </g>
        </g>
    </g>
    <g transform="matrix(1.333333,0,0,1.333333,0,-337.999995)">
        <g transform="matrix(1,0,0,1,1014.154108,518.146604)">
            <g>
                <path d="M32.875,-112.219C32.875,-109.094 31.82,-106.41 29.719,-104.172C27.613,-101.93 25.102,-100.812 22.188,-100.812C19.594,-100.812 17.27,-101.863 15.219,-103.969C13.164,-106.07 12.141,-108.609 12.141,-111.578C12.141,-114.598 13.141,-117.211 15.141,-119.422C17.141,-121.641 19.488,-122.75 22.188,-122.75C25.207,-122.75 27.742,-121.707 29.797,-119.625C31.848,-117.551 32.875,-115.082 32.875,-112.219ZM5.984,0L5.984,-5.344C9.984,-5.613 12.672,-6.395 14.047,-7.688C15.422,-8.988 16.109,-10.961 16.109,-13.609L16.109,-62.828C16.109,-65.523 15.055,-67.953 12.953,-70.109C10.848,-72.273 7.691,-73.492 3.484,-73.766L3.484,-79.109L30.047,-80.734L31.172,-79.594L31.172,-14.578C31.172,-11.93 32.07,-9.836 33.875,-8.297C35.688,-6.754 38.16,-5.77 41.297,-5.344L41.297,0L5.984,0Z" style="fill:rgb(184,134,11);fill-rule:nonzero;"/>
            </g>
        </g>
    </g>
    <g transform="matrix(1.333333,0,0,1.333333,0,-337.999995)">
        <g transform="matrix(1,0,0,1,1042.334404,518.146604)">
            <g>
                <path d="M62.031,-69.469C62.031,-66.227 61.27,-63.676 59.75,-61.812C58.238,-59.957 56.109,-59.031 53.359,-59.031C50.816,-59.031 48.695,-59.719 47,-61.094C45.301,-62.469 44.453,-64.266 44.453,-66.484C44.453,-67.504 44.723,-69.551 45.266,-72.625C42.516,-72.52 39.734,-71.254 36.922,-68.828C34.117,-66.398 32.148,-63.754 31.016,-60.891L31.016,-14.406C31.016,-11.5 31.82,-9.383 33.438,-8.062C35.062,-6.738 38.785,-5.832 44.609,-5.344L44.609,0L5.828,0L5.828,-5.344L9.156,-5.75C11.688,-5.906 13.453,-6.66 14.453,-8.016C15.453,-9.367 15.953,-11.234 15.953,-13.609L15.953,-62.828C15.953,-64.723 15.52,-66.598 14.656,-68.453C13.789,-70.316 12.68,-71.613 11.328,-72.344C9.984,-73.07 7.852,-73.547 4.938,-73.766L4.938,-79.109L29.875,-80.734L31.016,-79.594L31.016,-68.5L31.328,-68.5C34.566,-73.031 37.992,-76.375 41.609,-78.531C45.234,-80.695 48.555,-81.781 51.578,-81.781C54.648,-81.781 57.16,-80.688 59.109,-78.5C61.055,-76.312 62.031,-73.301 62.031,-69.469Z" style="fill:rgb(184,134,11);fill-rule:nonzero;"/>
            </g>
        </g>
    </g>
</svg>
