<svg xmlns="http://www.w3.org/2000/svg" xmlns:xlink="http://www.w3.org/1999/xlink" width="1920" zoomAndPan="magnify" viewBox="0 0 1440 809.999993" height="1080" preserveAspectRatio="xMidYMid meet" version="1.0"><defs><g/></defs><g fill="#013b46" fill-opacity="1"><g transform="translate(194.088262, 422.384324)"><g><path d="M 62.84375 -4.359375 C 53.800781 -0.0976562 45.570312 2.03125 38.15625 2.03125 C 31.070312 2.03125 25.804688 0.109375 22.359375 -3.734375 C 18.921875 -7.585938 17.203125 -13.664062 17.203125 -21.96875 L 17.203125 -89.765625 L 1.015625 -89.765625 L 1.015625 -99.28125 L 17.609375 -99.28125 L 17.609375 -130.34375 L 36.03125 -130.34375 L 36.03125 -99.28125 L 60.3125 -99.28125 L 60.3125 -89.765625 L 36.234375 -89.765625 L 36.234375 -34 C 36.234375 -26.71875 36.65625 -21.59375 37.5 -18.625 C 38.34375 -15.65625 39.738281 -13.492188 41.6875 -12.140625 C 43.644531 -10.796875 46.484375 -10.125 50.203125 -10.125 C 52.492188 -10.125 54.953125 -10.320312 57.578125 -10.71875 C 60.210938 -11.125 61.96875 -11.5 62.84375 -11.84375 Z M 62.84375 -4.359375 "/></g></g></g><g fill="#013b46" fill-opacity="1"><g transform="translate(238.015147, 422.384324)"><g><path d="M 58.5 0 L 58.5 -6.671875 L 63.046875 -7.1875 C 66.285156 -7.382812 68.546875 -8.3125 69.828125 -9.96875 C 71.109375 -11.625 71.75 -13.96875 71.75 -17 L 71.75 -68.40625 C 71.75 -74.957031 70.484375 -80.289062 67.953125 -84.40625 C 65.421875 -88.519531 62.03125 -90.578125 57.78125 -90.578125 C 53.195312 -90.578125 49 -89.140625 45.1875 -86.265625 C 41.375 -83.398438 38.625 -79.773438 36.9375 -75.390625 L 36.9375 -18.015625 C 36.9375 -14.578125 37.878906 -11.976562 39.765625 -10.21875 C 41.660156 -8.46875 45.140625 -7.285156 50.203125 -6.671875 L 50.203125 0 L 5.359375 0 L 5.359375 -6.671875 L 9.515625 -7.1875 C 12.679688 -7.382812 14.890625 -8.289062 16.140625 -9.90625 C 17.390625 -11.53125 18.015625 -13.894531 18.015625 -17 L 18.015625 -133.28125 C 18.015625 -135.570312 17.554688 -137.863281 16.640625 -140.15625 C 15.734375 -142.457031 14.539062 -144.179688 13.0625 -145.328125 C 11.4375 -146.410156 7.285156 -147.21875 0.609375 -147.75 L 0.609375 -154.4375 L 35.421875 -156.65625 L 36.9375 -155.25 L 36.9375 -85.625 L 37.34375 -85.625 L 42.609375 -91.484375 C 49.285156 -98.910156 57.3125 -102.625 66.6875 -102.625 C 74.519531 -102.625 80.492188 -99.769531 84.609375 -94.0625 C 88.722656 -88.363281 90.78125 -80.21875 90.78125 -69.625 L 90.78125 -17.8125 C 90.78125 -14.4375 91.625 -11.890625 93.3125 -10.171875 C 95 -8.453125 98.304688 -7.285156 103.234375 -6.671875 L 103.234375 0 Z M 58.5 0 "/></g></g></g><g fill="#013b46" fill-opacity="1"><g transform="translate(324.851847, 422.384324)"><g><path d="M 77.515625 -86.828125 C 77.515625 -82.785156 76.570312 -79.597656 74.6875 -77.265625 C 72.800781 -74.941406 70.132812 -73.78125 66.6875 -73.78125 C 63.519531 -73.78125 60.875 -74.640625 58.75 -76.359375 C 56.625 -78.078125 55.5625 -80.320312 55.5625 -83.09375 C 55.5625 -84.375 55.898438 -86.9375 56.578125 -90.78125 C 53.128906 -90.644531 49.648438 -89.054688 46.140625 -86.015625 C 42.640625 -82.984375 40.179688 -79.679688 38.765625 -76.109375 L 38.765625 -18.015625 C 38.765625 -14.367188 39.773438 -11.71875 41.796875 -10.0625 C 43.816406 -8.414062 48.472656 -7.285156 55.765625 -6.671875 L 55.765625 0 L 7.28125 0 L 7.28125 -6.671875 L 11.4375 -7.1875 C 14.601562 -7.382812 16.8125 -8.328125 18.0625 -10.015625 C 19.3125 -11.703125 19.9375 -14.03125 19.9375 -17 L 19.9375 -78.53125 C 19.9375 -80.894531 19.394531 -83.238281 18.3125 -85.5625 C 17.238281 -87.894531 15.859375 -89.515625 14.171875 -90.421875 C 12.484375 -91.335938 9.816406 -91.929688 6.171875 -92.203125 L 6.171875 -98.875 L 37.34375 -100.90625 L 38.765625 -99.484375 L 38.765625 -85.625 L 39.171875 -85.625 C 43.210938 -91.289062 47.492188 -95.472656 52.015625 -98.171875 C 56.535156 -100.867188 60.6875 -102.21875 64.46875 -102.21875 C 68.3125 -102.21875 71.445312 -100.847656 73.875 -98.109375 C 76.300781 -95.378906 77.515625 -91.617188 77.515625 -86.828125 Z M 77.515625 -86.828125 "/></g></g></g><g fill="#013b46" fill-opacity="1"><g transform="translate(381.631431, 422.384324)"><g><path d="M 96.140625 -51 C 96.140625 -40.675781 94.285156 -31.382812 90.578125 -23.125 C 86.867188 -14.863281 81.570312 -8.421875 74.6875 -3.796875 C 67.800781 0.828125 59.835938 3.140625 50.796875 3.140625 C 42.835938 3.140625 35.46875 0.878906 28.6875 -3.640625 C 21.90625 -8.160156 16.609375 -14.4375 12.796875 -22.46875 C 8.984375 -30.5 7.078125 -39.503906 7.078125 -49.484375 C 7.078125 -65.273438 11.242188 -78.078125 19.578125 -87.890625 C 27.910156 -97.710938 38.789062 -102.625 52.21875 -102.625 C 60.789062 -102.625 68.445312 -100.410156 75.1875 -95.984375 C 81.9375 -91.566406 87.113281 -85.425781 90.71875 -77.5625 C 94.332031 -69.707031 96.140625 -60.851562 96.140625 -51 Z M 75.1875 -50.796875 C 75.1875 -64.765625 73.144531 -75.609375 69.0625 -83.328125 C 64.988281 -91.054688 59.304688 -94.921875 52.015625 -94.921875 C 44.390625 -94.921875 38.46875 -90.988281 34.25 -83.125 C 30.039062 -75.269531 27.9375 -64.628906 27.9375 -51.203125 C 27.9375 -36.765625 30.0625 -25.378906 34.3125 -17.046875 C 38.5625 -8.710938 44.460938 -4.546875 52.015625 -4.546875 C 59.234375 -4.546875 64.898438 -8.695312 69.015625 -17 C 73.128906 -25.300781 75.1875 -36.566406 75.1875 -50.796875 Z M 75.1875 -50.796875 "/></g></g></g><g fill="#013b46" fill-opacity="1"><g transform="translate(463.509223, 422.384324)"><g><path d="M 71.34375 0.40625 L 69.625 -1.015625 L 69.625 -13.65625 L 69.015625 -13.65625 C 65.441406 -9.207031 62.351562 -5.96875 59.75 -3.9375 C 57.15625 -1.914062 54.289062 -0.332031 51.15625 0.8125 C 48.019531 1.957031 44.492188 2.53125 40.578125 2.53125 C 32.890625 2.53125 27.070312 -0.332031 23.125 -6.0625 C 19.175781 -11.800781 17.203125 -20.203125 17.203125 -31.265625 L 17.203125 -78.9375 C 17.203125 -82.71875 16.1875 -85.738281 14.15625 -88 C 12.132812 -90.257812 8.597656 -91.59375 3.546875 -92 L 3.546875 -98.671875 L 34.8125 -100.90625 L 36.234375 -99.484375 L 36.234375 -30.265625 C 36.234375 -23.648438 37.445312 -18.367188 39.875 -14.421875 C 42.300781 -10.472656 45.503906 -8.5 49.484375 -8.5 C 57.710938 -8.5 64.425781 -13.390625 69.625 -23.171875 L 69.625 -79.75 C 69.625 -82.175781 69.132812 -84.382812 68.15625 -86.375 C 67.175781 -88.363281 65.941406 -89.726562 64.453125 -90.46875 C 62.972656 -91.21875 59.804688 -91.726562 54.953125 -92 L 54.953125 -98.671875 L 87.03125 -100.90625 L 88.75 -99.484375 L 88.75 -20.34375 C 88.75 -17.238281 89.554688 -14.625 91.171875 -12.5 C 92.796875 -10.375 94.789062 -9.175781 97.15625 -8.90625 L 101.8125 -8.5 L 101.8125 -1.828125 Z M 71.34375 0.40625 "/></g></g></g><g fill="#013b46" fill-opacity="1"><g transform="translate(548.929064, 422.384324)"><g><path d="M 93.3125 10.328125 C 93.3125 20.984375 89.09375 29.414062 80.65625 35.625 C 72.226562 41.832031 60.488281 44.9375 45.4375 44.9375 C 18.050781 44.9375 4.359375 36.234375 4.359375 18.828125 C 4.359375 12.347656 6.867188 7.050781 11.890625 2.9375 C 16.921875 -1.175781 23.957031 -3.472656 33 -3.953125 L 33 -5.15625 C 26.582031 -7.1875 22.039062 -9.597656 19.375 -12.390625 C 16.71875 -15.191406 15.390625 -18.648438 15.390625 -22.765625 C 15.390625 -30.328125 20.414062 -36.195312 30.46875 -40.375 L 30.46875 -42.09375 C 23.988281 -45 18.976562 -48.828125 15.4375 -53.578125 C 11.894531 -58.335938 10.125 -63.890625 10.125 -70.234375 C 10.125 -79.679688 13.257812 -87.441406 19.53125 -93.515625 C 25.800781 -99.585938 33.660156 -102.625 43.109375 -102.625 C 48.234375 -102.625 53.765625 -101.507812 59.703125 -99.28125 L 92.40625 -99.28125 L 92.40625 -89.765625 L 71.046875 -89.765625 L 71.046875 -89.15625 C 76.035156 -83.351562 78.53125 -76.640625 78.53125 -69.015625 C 78.53125 -63.347656 77.0625 -58.117188 74.125 -53.328125 C 71.195312 -48.546875 67.285156 -44.753906 62.390625 -41.953125 C 57.503906 -39.148438 52.460938 -37.75 47.265625 -37.75 L 35.828125 -37.75 C 31.710938 -35.726562 29.65625 -32.828125 29.65625 -29.046875 C 29.65625 -26.753906 30.160156 -24.96875 31.171875 -23.6875 C 32.179688 -22.40625 33.695312 -21.457031 35.71875 -20.84375 C 37.75 -20.238281 42.269531 -19.703125 49.28125 -19.234375 L 69.625 -18.015625 C 73.875 -17.609375 77.835938 -16.125 81.515625 -13.5625 C 85.191406 -11 88.078125 -7.660156 90.171875 -3.546875 C 92.265625 0.566406 93.3125 5.191406 93.3125 10.328125 Z M 59.3125 -69.421875 C 59.3125 -77.253906 57.925781 -83.53125 55.15625 -88.25 C 52.382812 -92.96875 48.707031 -95.328125 44.125 -95.328125 C 39.601562 -95.328125 36.09375 -93.066406 33.59375 -88.546875 C 31.101562 -84.023438 29.859375 -77.851562 29.859375 -70.03125 C 29.859375 -62.8125 31.238281 -56.789062 34 -51.96875 C 36.769531 -47.144531 40.210938 -44.734375 44.328125 -44.734375 C 48.773438 -44.734375 52.382812 -47.0625 55.15625 -51.71875 C 57.925781 -56.375 59.3125 -62.273438 59.3125 -69.421875 Z M 76.71875 14.0625 C 76.71875 6.300781 73.613281 1.75 67.40625 0.40625 C 62.34375 -0.8125 53.066406 -1.421875 39.578125 -1.421875 C 33.160156 -0.00390625 28.617188 2.375 25.953125 5.71875 C 23.296875 9.0625 21.96875 13.296875 21.96875 18.421875 C 21.96875 24.148438 24.34375 28.734375 29.09375 32.171875 C 33.851562 35.617188 40.378906 37.34375 48.671875 37.34375 C 57.378906 37.34375 64.226562 35.4375 69.21875 31.625 C 74.21875 27.8125 76.71875 21.957031 76.71875 14.0625 Z M 76.71875 14.0625 "/></g></g></g><g fill="#013b46" fill-opacity="1"><g transform="translate(624.83589, 422.384324)"><g><path d="M 58.5 0 L 58.5 -6.671875 L 63.046875 -7.1875 C 66.285156 -7.382812 68.546875 -8.3125 69.828125 -9.96875 C 71.109375 -11.625 71.75 -13.96875 71.75 -17 L 71.75 -68.40625 C 71.75 -74.957031 70.484375 -80.289062 67.953125 -84.40625 C 65.421875 -88.519531 62.03125 -90.578125 57.78125 -90.578125 C 53.195312 -90.578125 49 -89.140625 45.1875 -86.265625 C 41.375 -83.398438 38.625 -79.773438 36.9375 -75.390625 L 36.9375 -18.015625 C 36.9375 -14.578125 37.878906 -11.976562 39.765625 -10.21875 C 41.660156 -8.46875 45.140625 -7.285156 50.203125 -6.671875 L 50.203125 0 L 5.359375 0 L 5.359375 -6.671875 L 9.515625 -7.1875 C 12.679688 -7.382812 14.890625 -8.289062 16.140625 -9.90625 C 17.390625 -11.53125 18.015625 -13.894531 18.015625 -17 L 18.015625 -133.28125 C 18.015625 -135.570312 17.554688 -137.863281 16.640625 -140.15625 C 15.734375 -142.457031 14.539062 -144.179688 13.0625 -145.328125 C 11.4375 -146.410156 7.285156 -147.21875 0.609375 -147.75 L 0.609375 -154.4375 L 35.421875 -156.65625 L 36.9375 -155.25 L 36.9375 -85.625 L 37.34375 -85.625 L 42.609375 -91.484375 C 49.285156 -98.910156 57.3125 -102.625 66.6875 -102.625 C 74.519531 -102.625 80.492188 -99.769531 84.609375 -94.0625 C 88.722656 -88.363281 90.78125 -80.21875 90.78125 -69.625 L 90.78125 -17.8125 C 90.78125 -14.4375 91.625 -11.890625 93.3125 -10.171875 C 95 -8.453125 98.304688 -7.285156 103.234375 -6.671875 L 103.234375 0 Z M 58.5 0 "/></g></g></g><g fill="#013b46" fill-opacity="1"><g transform="translate(711.672601, 422.384324)"><g><path d="M 5.359375 0 L 5.359375 -6.671875 L 7.6875 -6.875 C 8.5625 -6.875 10.078125 -7.160156 12.234375 -7.734375 C 14.398438 -8.316406 15.9375 -9.414062 16.84375 -11.03125 C 17.757812 -12.644531 18.21875 -14.632812 18.21875 -17 L 18.21875 -132.671875 C 18.21875 -136.859375 16.914062 -140.300781 14.3125 -143 C 11.71875 -145.695312 7.015625 -147.28125 0.203125 -147.75 L 0.203125 -154.4375 L 35.625 -156.65625 L 37.140625 -155.25 L 37.140625 -18.21875 C 37.140625 -15.113281 37.984375 -12.679688 39.671875 -10.921875 C 41.359375 -9.171875 44.800781 -7.753906 50 -6.671875 L 50 0 Z M 5.359375 0 "/></g></g></g><g fill="#013b46" fill-opacity="1"><g transform="translate(745.479271, 422.384324)"><g><path d="M 41.09375 -140.265625 C 41.09375 -136.359375 39.773438 -133.003906 37.140625 -130.203125 C 34.503906 -127.398438 31.367188 -126 27.734375 -126 C 24.492188 -126 21.59375 -127.3125 19.03125 -129.9375 C 16.46875 -132.570312 15.1875 -135.742188 15.1875 -139.453125 C 15.1875 -143.234375 16.429688 -146.503906 18.921875 -149.265625 C 21.421875 -152.035156 24.359375 -153.421875 27.734375 -153.421875 C 31.503906 -153.421875 34.671875 -152.117188 37.234375 -149.515625 C 39.804688 -146.921875 41.09375 -143.835938 41.09375 -140.265625 Z M 7.484375 0 L 7.484375 -6.671875 C 12.484375 -7.015625 15.84375 -7.992188 17.5625 -9.609375 C 19.28125 -11.234375 20.140625 -13.695312 20.140625 -17 L 20.140625 -78.53125 C 20.140625 -81.90625 18.820312 -84.941406 16.1875 -87.640625 C 13.5625 -90.335938 9.617188 -91.859375 4.359375 -92.203125 L 4.359375 -98.875 L 37.546875 -100.90625 L 38.96875 -99.484375 L 38.96875 -18.21875 C 38.96875 -14.90625 40.097656 -12.285156 42.359375 -10.359375 C 44.617188 -8.441406 47.703125 -7.210938 51.609375 -6.671875 L 51.609375 0 Z M 7.484375 0 "/></g></g></g><g fill="#013b46" fill-opacity="1"><g transform="translate(780.702765, 422.384324)"><g><path d="M 60.515625 0 L 60.515625 -6.671875 L 65.078125 -7.1875 C 68.316406 -7.382812 70.578125 -8.273438 71.859375 -9.859375 C 73.140625 -11.453125 73.78125 -13.832031 73.78125 -17 L 73.78125 -68.40625 C 73.78125 -75.019531 72.476562 -80.367188 69.875 -84.453125 C 67.28125 -88.535156 63.890625 -90.578125 59.703125 -90.578125 C 55.179688 -90.578125 51 -89.140625 47.15625 -86.265625 C 43.3125 -83.398438 40.515625 -79.773438 38.765625 -75.390625 L 38.765625 -18.015625 C 38.765625 -14.640625 39.691406 -12.070312 41.546875 -10.3125 C 43.398438 -8.5625 46.890625 -7.347656 52.015625 -6.671875 L 52.015625 0 L 7.28125 0 L 7.28125 -6.671875 L 11.4375 -7.1875 C 14.601562 -7.382812 16.8125 -8.328125 18.0625 -10.015625 C 19.3125 -11.703125 19.9375 -14.03125 19.9375 -17 L 19.9375 -78.53125 C 19.9375 -81.226562 19.257812 -83.738281 17.90625 -86.0625 C 16.5625 -88.394531 15.007812 -89.945312 13.25 -90.71875 C 11.5 -91.5 9.070312 -91.992188 5.96875 -92.203125 L 5.96875 -98.875 L 37.34375 -100.90625 L 38.765625 -99.484375 L 38.765625 -85.625 L 39.171875 -85.625 L 44.421875 -91.484375 C 51.109375 -98.910156 59.039062 -102.625 68.21875 -102.625 C 76.238281 -102.625 82.304688 -99.753906 86.421875 -94.015625 C 90.546875 -88.285156 92.609375 -80.15625 92.609375 -69.625 L 92.609375 -17.8125 C 92.609375 -14.570312 93.445312 -12.070312 95.125 -10.3125 C 96.8125 -8.5625 100.117188 -7.347656 105.046875 -6.671875 L 105.046875 0 Z M 60.515625 0 "/></g></g></g><g fill="#013b46" fill-opacity="1"><g transform="translate(869.361101, 422.384324)"><g><path d="M 87.640625 -23.375 C 84.066406 -15.476562 79.003906 -9.148438 72.453125 -4.390625 C 65.910156 0.359375 58.628906 2.734375 50.609375 2.734375 C 41.628906 2.734375 33.867188 0.523438 27.328125 -3.890625 C 20.785156 -8.316406 15.804688 -14.578125 12.390625 -22.671875 C 8.984375 -30.765625 7.28125 -40.140625 7.28125 -50.796875 C 7.28125 -60.109375 9.050781 -68.78125 12.59375 -76.8125 C 16.132812 -84.84375 21.039062 -91.148438 27.3125 -95.734375 C 33.59375 -100.328125 40.648438 -102.625 48.484375 -102.625 C 60.085938 -102.625 69.109375 -98.859375 75.546875 -91.328125 C 81.992188 -83.804688 85.21875 -73.265625 85.21875 -59.703125 L 85.21875 -53.03125 L 27.328125 -53.03125 C 27.328125 -38.789062 29.820312 -27.804688 34.8125 -20.078125 C 39.800781 -12.359375 46.921875 -8.5 56.171875 -8.5 C 61.234375 -8.5 65.582031 -9.796875 69.21875 -12.390625 C 72.863281 -14.992188 76.8125 -20.039062 81.0625 -27.53125 Z M 65.28125 -61.53125 C 65.28125 -72.59375 63.8125 -80.921875 60.875 -86.515625 C 57.9375 -92.117188 53.671875 -94.921875 48.078125 -94.921875 C 42.140625 -94.921875 37.265625 -91.882812 33.453125 -85.8125 C 29.640625 -79.75 27.597656 -71.65625 27.328125 -61.53125 Z M 65.28125 -61.53125 "/></g></g></g><g fill="#b8860b" fill-opacity="1"><g transform="translate(667.519314, 518.146604)"><g><path d="M 90.203125 0 L 90.203125 -5.34375 C 93.597656 -5.613281 95.863281 -6.019531 97 -6.5625 C 98.132812 -7.101562 98.972656 -7.992188 99.515625 -9.234375 C 100.054688 -10.472656 100.328125 -11.929688 100.328125 -13.609375 L 100.328125 -54.890625 C 100.328125 -60.566406 99.300781 -64.914062 97.25 -67.9375 C 95.195312 -70.957031 92.628906 -72.46875 89.546875 -72.46875 C 82.691406 -72.46875 77.269531 -68.5 73.28125 -60.5625 L 73.28125 -14.40625 C 73.28125 -11.757812 73.925781 -9.722656 75.21875 -8.296875 C 76.519531 -6.867188 79.191406 -5.882812 83.234375 -5.34375 L 83.234375 0 L 48.421875 0 L 48.421875 -5.34375 C 51.660156 -5.613281 53.816406 -6.03125 54.890625 -6.59375 C 55.972656 -7.164062 56.769531 -8.054688 57.28125 -9.265625 C 57.800781 -10.484375 58.0625 -11.929688 58.0625 -13.609375 L 58.0625 -54.890625 C 58.0625 -60.347656 57.0625 -64.640625 55.0625 -67.765625 C 53.0625 -70.898438 50.46875 -72.46875 47.28125 -72.46875 C 43.9375 -72.46875 40.789062 -71.382812 37.84375 -69.21875 C 34.90625 -67.0625 32.628906 -64.097656 31.015625 -60.328125 L 31.015625 -14.578125 C 31.015625 -11.765625 31.769531 -9.644531 33.28125 -8.21875 C 34.789062 -6.789062 37.460938 -5.832031 41.296875 -5.34375 L 41.296875 0 L 5.984375 0 L 5.984375 -5.34375 C 7.765625 -5.34375 9.519531 -5.582031 11.25 -6.0625 C 12.976562 -6.550781 14.191406 -7.457031 14.890625 -8.78125 C 15.597656 -10.101562 15.953125 -11.710938 15.953125 -13.609375 L 15.953125 -63.15625 C 15.953125 -65.695312 15.0625 -68.019531 13.28125 -70.125 C 11.5 -72.226562 8.609375 -73.441406 4.609375 -73.765625 L 4.609375 -79.109375 L 29.875 -80.734375 L 31.015625 -79.59375 L 31.015625 -68.34375 L 31.328125 -68.34375 L 35.546875 -73.203125 C 40.722656 -79.140625 47.007812 -82.109375 54.40625 -82.109375 C 58.5625 -82.109375 62.269531 -80.820312 65.53125 -78.25 C 68.800781 -75.6875 71.222656 -72.222656 72.796875 -67.859375 L 77.25 -72.796875 C 82.863281 -79.003906 89.335938 -82.109375 96.671875 -82.109375 C 102.828125 -82.109375 107.507812 -79.742188 110.71875 -75.015625 C 113.9375 -70.296875 115.546875 -63.644531 115.546875 -55.0625 L 115.546875 -14.40625 C 115.546875 -11.757812 116.207031 -9.722656 117.53125 -8.296875 C 118.851562 -6.867188 121.671875 -5.882812 125.984375 -5.34375 L 125.984375 0 Z M 90.203125 0 "/></g></g></g><g fill="#b8860b" fill-opacity="1"><g transform="translate(779.905256, 518.146604)"><g><path d="M 70.125 -18.703125 C 67.257812 -12.390625 63.207031 -7.328125 57.96875 -3.515625 C 52.738281 0.285156 46.910156 2.1875 40.484375 2.1875 C 33.304688 2.1875 27.097656 0.421875 21.859375 -3.109375 C 16.628906 -6.648438 12.648438 -11.660156 9.921875 -18.140625 C 7.191406 -24.617188 5.828125 -32.117188 5.828125 -40.640625 C 5.828125 -48.097656 7.242188 -55.035156 10.078125 -61.453125 C 12.910156 -67.878906 16.835938 -72.925781 21.859375 -76.59375 C 26.878906 -80.269531 32.519531 -82.109375 38.78125 -82.109375 C 48.070312 -82.109375 55.289062 -79.097656 60.4375 -73.078125 C 65.59375 -67.054688 68.171875 -58.617188 68.171875 -47.765625 L 68.171875 -42.421875 L 21.859375 -42.421875 C 21.859375 -31.035156 23.851562 -22.25 27.84375 -16.0625 C 31.84375 -9.882812 37.539062 -6.796875 44.9375 -6.796875 C 48.988281 -6.796875 52.46875 -7.832031 55.375 -9.90625 C 58.289062 -11.988281 61.453125 -16.03125 64.859375 -22.03125 Z M 52.21875 -49.234375 C 52.21875 -58.085938 51.046875 -64.753906 48.703125 -69.234375 C 46.359375 -73.710938 42.945312 -75.953125 38.46875 -75.953125 C 33.707031 -75.953125 29.800781 -73.519531 26.75 -68.65625 C 23.707031 -63.800781 22.078125 -57.328125 21.859375 -49.234375 Z M 52.21875 -49.234375 "/></g></g></g><g fill="#b8860b" fill-opacity="1"><g transform="translate(836.262073, 518.146604)"><g><path d="M 90.203125 0 L 90.203125 -5.34375 C 93.597656 -5.613281 95.863281 -6.019531 97 -6.5625 C 98.132812 -7.101562 98.972656 -7.992188 99.515625 -9.234375 C 100.054688 -10.472656 100.328125 -11.929688 100.328125 -13.609375 L 100.328125 -54.890625 C 100.328125 -60.566406 99.300781 -64.914062 97.25 -67.9375 C 95.195312 -70.957031 92.628906 -72.46875 89.546875 -72.46875 C 82.691406 -72.46875 77.269531 -68.5 73.28125 -60.5625 L 73.28125 -14.40625 C 73.28125 -11.757812 73.925781 -9.722656 75.21875 -8.296875 C 76.519531 -6.867188 79.191406 -5.882812 83.234375 -5.34375 L 83.234375 0 L 48.421875 0 L 48.421875 -5.34375 C 51.660156 -5.613281 53.816406 -6.03125 54.890625 -6.59375 C 55.972656 -7.164062 56.769531 -8.054688 57.28125 -9.265625 C 57.800781 -10.484375 58.0625 -11.929688 58.0625 -13.609375 L 58.0625 -54.890625 C 58.0625 -60.347656 57.0625 -64.640625 55.0625 -67.765625 C 53.0625 -70.898438 50.46875 -72.46875 47.28125 -72.46875 C 43.9375 -72.46875 40.789062 -71.382812 37.84375 -69.21875 C 34.90625 -67.0625 32.628906 -64.097656 31.015625 -60.328125 L 31.015625 -14.578125 C 31.015625 -11.765625 31.769531 -9.644531 33.28125 -8.21875 C 34.789062 -6.789062 37.460938 -5.832031 41.296875 -5.34375 L 41.296875 0 L 5.984375 0 L 5.984375 -5.34375 C 7.765625 -5.34375 9.519531 -5.582031 11.25 -6.0625 C 12.976562 -6.550781 14.191406 -7.457031 14.890625 -8.78125 C 15.597656 -10.101562 15.953125 -11.710938 15.953125 -13.609375 L 15.953125 -63.15625 C 15.953125 -65.695312 15.0625 -68.019531 13.28125 -70.125 C 11.5 -72.226562 8.609375 -73.441406 4.609375 -73.765625 L 4.609375 -79.109375 L 29.875 -80.734375 L 31.015625 -79.59375 L 31.015625 -68.34375 L 31.328125 -68.34375 L 35.546875 -73.203125 C 40.722656 -79.140625 47.007812 -82.109375 54.40625 -82.109375 C 58.5625 -82.109375 62.269531 -80.820312 65.53125 -78.25 C 68.800781 -75.6875 71.222656 -72.222656 72.796875 -67.859375 L 77.25 -72.796875 C 82.863281 -79.003906 89.335938 -82.109375 96.671875 -82.109375 C 102.828125 -82.109375 107.507812 -79.742188 110.71875 -75.015625 C 113.9375 -70.296875 115.546875 -63.644531 115.546875 -55.0625 L 115.546875 -14.40625 C 115.546875 -11.757812 116.207031 -9.722656 117.53125 -8.296875 C 118.851562 -6.867188 121.671875 -5.882812 125.984375 -5.34375 L 125.984375 0 Z M 90.203125 0 "/></g></g></g><g fill="#b8860b" fill-opacity="1"><g transform="translate(948.648015, 518.146604)"><g><path d="M 76.921875 -40.8125 C 76.921875 -32.550781 75.4375 -25.113281 72.46875 -18.5 C 69.5 -11.882812 65.257812 -6.726562 59.75 -3.03125 C 54.25 0.664062 47.878906 2.515625 40.640625 2.515625 C 34.273438 2.515625 28.378906 0.707031 22.953125 -2.90625 C 17.523438 -6.53125 13.285156 -11.550781 10.234375 -17.96875 C 7.191406 -24.394531 5.671875 -31.601562 5.671875 -39.59375 C 5.671875 -52.226562 9.003906 -62.472656 15.671875 -70.328125 C 22.335938 -78.179688 31.039062 -82.109375 41.78125 -82.109375 C 48.632812 -82.109375 54.757812 -80.335938 60.15625 -76.796875 C 65.5625 -73.265625 69.707031 -68.351562 72.59375 -62.0625 C 75.476562 -55.769531 76.921875 -48.6875 76.921875 -40.8125 Z M 60.15625 -40.640625 C 60.15625 -51.816406 58.519531 -60.492188 55.25 -66.671875 C 51.988281 -72.859375 47.445312 -75.953125 41.625 -75.953125 C 35.519531 -75.953125 30.78125 -72.804688 27.40625 -66.515625 C 24.03125 -60.222656 22.34375 -51.707031 22.34375 -40.96875 C 22.34375 -29.414062 24.039062 -20.304688 27.4375 -13.640625 C 30.84375 -6.972656 35.570312 -3.640625 41.625 -3.640625 C 47.394531 -3.640625 51.925781 -6.957031 55.21875 -13.59375 C 58.507812 -20.238281 60.15625 -29.253906 60.15625 -40.640625 Z M 60.15625 -40.640625 "/></g></g></g><g fill="#b8860b" fill-opacity="1"><g transform="translate(1014.154108, 518.146604)"><g><path d="M 32.875 -112.21875 C 32.875 -109.09375 31.820312 -106.410156 29.71875 -104.171875 C 27.613281 -101.929688 25.101562 -100.8125 22.1875 -100.8125 C 19.59375 -100.8125 17.269531 -101.863281 15.21875 -103.96875 C 13.164062 -106.070312 12.140625 -108.609375 12.140625 -111.578125 C 12.140625 -114.597656 13.140625 -117.210938 15.140625 -119.421875 C 17.140625 -121.640625 19.488281 -122.75 22.1875 -122.75 C 25.207031 -122.75 27.742188 -121.707031 29.796875 -119.625 C 31.847656 -117.550781 32.875 -115.082031 32.875 -112.21875 Z M 5.984375 0 L 5.984375 -5.34375 C 9.984375 -5.613281 12.671875 -6.394531 14.046875 -7.6875 C 15.421875 -8.988281 16.109375 -10.960938 16.109375 -13.609375 L 16.109375 -62.828125 C 16.109375 -65.523438 15.054688 -67.953125 12.953125 -70.109375 C 10.847656 -72.273438 7.691406 -73.492188 3.484375 -73.765625 L 3.484375 -79.109375 L 30.046875 -80.734375 L 31.171875 -79.59375 L 31.171875 -14.578125 C 31.171875 -11.929688 32.070312 -9.835938 33.875 -8.296875 C 35.6875 -6.753906 38.160156 -5.769531 41.296875 -5.34375 L 41.296875 0 Z M 5.984375 0 "/></g></g></g><g fill="#b8860b" fill-opacity="1"><g transform="translate(1042.334404, 518.146604)"><g><path d="M 62.03125 -69.46875 C 62.03125 -66.226562 61.269531 -63.675781 59.75 -61.8125 C 58.238281 -59.957031 56.109375 -59.03125 53.359375 -59.03125 C 50.816406 -59.03125 48.695312 -59.71875 47 -61.09375 C 45.300781 -62.46875 44.453125 -64.265625 44.453125 -66.484375 C 44.453125 -67.503906 44.722656 -69.550781 45.265625 -72.625 C 42.515625 -72.519531 39.734375 -71.253906 36.921875 -68.828125 C 34.117188 -66.398438 32.148438 -63.753906 31.015625 -60.890625 L 31.015625 -14.40625 C 31.015625 -11.5 31.820312 -9.382812 33.4375 -8.0625 C 35.0625 -6.738281 38.785156 -5.832031 44.609375 -5.34375 L 44.609375 0 L 5.828125 0 L 5.828125 -5.34375 L 9.15625 -5.75 C 11.6875 -5.90625 13.453125 -6.660156 14.453125 -8.015625 C 15.453125 -9.367188 15.953125 -11.234375 15.953125 -13.609375 L 15.953125 -62.828125 C 15.953125 -64.722656 15.519531 -66.597656 14.65625 -68.453125 C 13.789062 -70.316406 12.679688 -71.613281 11.328125 -72.34375 C 9.984375 -73.070312 7.851562 -73.546875 4.9375 -73.765625 L 4.9375 -79.109375 L 29.875 -80.734375 L 31.015625 -79.59375 L 31.015625 -68.5 L 31.328125 -68.5 C 34.566406 -73.03125 37.992188 -76.375 41.609375 -78.53125 C 45.234375 -80.695312 48.554688 -81.78125 51.578125 -81.78125 C 54.648438 -81.78125 57.160156 -80.6875 59.109375 -78.5 C 61.054688 -76.3125 62.03125 -73.300781 62.03125 -69.46875 Z M 62.03125 -69.46875 "/></g></g></g><path stroke-linecap="butt" transform="matrix(0.75, 0.000000000000000115, -0.000000000000000115, 0.75, -17.546294, 322.536186)" fill="none" stroke-linejoin="miter" d="M -0.000774327 6.998627 L 370.910703 6.998627 " stroke="#013b46" stroke-width="14" stroke-opacity="1" stroke-miterlimit="4"/><path stroke-linecap="butt" transform="matrix(0.75, 0, 0, 0.75, 884.301514, 360.044534)" fill="none" stroke-linejoin="miter" d="M -0.000976646 6.497913 L 753.061561 6.497913 " stroke="#013b46" stroke-width="13" stroke-opacity="1" stroke-miterlimit="4"/><path stroke-linecap="butt" transform="matrix(0.75, 0, 0, 0.75, 605.967936, 322.536186)" fill="none" stroke-linejoin="miter" d="M 0.00108568 6.998627 L 61.922964 6.998627 " stroke="#013b46" stroke-width="14" stroke-opacity="1" stroke-miterlimit="4"/></svg>